<svg xmlns="http://www.w3.org/2000/svg" width="28.406" height="27" viewBox="0 0 28.406 27">
  <path id="Icon_ionic-md-star-outline" data-name="Icon ionic-md-star-outline" d="M32.2,14.794l-10.214-.877L18,4.5l-3.99,9.417L3.8,14.794l7.748,6.717L9.222,31.5,18,26.2l8.777,5.3-2.322-9.989ZM19.162,24.278,18,23.577l-1.162.7L12.62,26.823l1.116-4.8.307-1.321-1.025-.889-3.726-3.23,4.91-.422,1.35-.116.529-1.248L18,10.268l1.917,4.527.529,1.248,1.351.116,4.911.422-3.726,3.23-1.025.888.307,1.321,1.116,4.8Z" transform="translate(-3.797 -4.5)"/>
</svg>
